####
#
#	OBJ File Generated by LightWave3D
#	LightWave3D OBJ Export v2.3
#
####
o PendentLight9ft.obj
mtllib PendentLight9ft.mtl
g default
v -0.0223857 -0.020588 -0.00249235
v -0.0223857 -0.020588 -0.60679
v -0.0223857 0.020687 -0.00249235
v -0.0223857 0.020687 -0.60679
v -0.00126969 -0.020588 -0.00249235
v -0.00126969 -0.020588 -0.0043126
v -0.00126969 -0.020588 -0.60497
v -0.00126969 -0.020588 -0.60679
v -0.00126969 0.000532765 -0.00249235
v -0.00126969 0.000532765 -0.0043126
v -0.00126969 0.000532765 -0.60497
v -0.00126969 0.000532765 -0.60679
v -0.00123698 -0.020588 -0.0043126
v -0.00123698 -0.020588 -0.60497
v -0.00123698 -0.01905 -0.0043126
v -0.00123698 -0.01905 -0.60497
v 0.000855977 -0.020588 -0.0043126
v 0.000855977 -0.020588 -0.60497
v 0.000855977 -0.01905 -0.0043126
v 0.000855977 -0.01905 -0.60497
v 0.000888684 -0.020588 -0.00249235
v 0.000888684 -0.020588 -0.0043126
v 0.000888684 -0.020588 -0.60497
v 0.000888684 -0.020588 -0.60679
v 0.000888684 0.000532765 -0.00249235
v 0.000888684 0.000532765 -0.0043126
v 0.000888684 0.000532765 -0.60497
v 0.000888684 0.000532765 -0.60679
v 0.0217626 -0.020588 -0.00249235
v 0.0217626 -0.020588 -0.60679
v 0.0217626 0.020687 -0.00249235
v 0.0217626 0.020687 -0.60679
vt 0.000722148 0.0282954
vt 0.013834 0.0297077
vt 0.0500279 0.0297077
vt 0.051404 0.448553
vt 0.0791063 0.448553
vt 0.25432 0.123879
vt 0.32539 0.123879
vt 0.484785 0.035628
vt 0.732488 0.071805
vt 0.745773 0.0586298
vt 0.746981 0.071805
vt 0.760266 0.071805
vt 0.761473 0.0586298
vt 0.774758 0.0586298
vt 0.839858 0.000690131
vt 0.897829 0.0295894
vt 0.971618 0.0211353
vt 0.984903 0.0150966
vn -1 0 -0
vn -0.707107 -0.707107 -0
vn -0.707107 0 0.707107
vn -0.707107 0 -0.707107
vn -0.707107 -0.707107 -0
vn -0.57735 -0.57735 0.57735
vn -0.57735 -0.57735 -0.57735
vn -0.57735 -0.57735 -0.57735
vn -0.57735 0.57735 0.57735
vn -0.57735 0.57735 -0.57735
vn -0.57735 -0.57735 0.57735
vn 0 -1 -0
vn 0 -0.707107 0.707107
vn 0 -0.707107 -0.707107
vn 0 -0.707107 0.707107
vn 0 -0.707107 -0.707107
vn 0 0 1
vn 0 0 -1
vn 0.57735 -0.57735 0.57735
vn 0.57735 -0.57735 -0.57735
vn 0.57735 -0.57735 0.57735
vn 0.57735 -0.57735 -0.57735
vn 0.57735 0.57735 0.57735
vn 0.57735 0.57735 -0.57735
vn 0.707107 -0.707107 -0
vn 0.707107 -0.707107 -0
vn 0.707107 0 0.707107
vn 0.707107 0 -0.707107
vn 1 0 -0
g group_Default
usemtl Default
s 1
f 1/6/6 5//13 9//17 25//17 21//15 29//21 31//23 3//9
f 29/2/21 21//15 22//12 17//2 18//2 23//12 24//16 30//22
f 2/4/8 8//14 7//12 14//25 13//25 6//12 5//13 1//6
f 30/7/22 24//16 28//18 12//18 8//14 2//8 4//10 32//24
f 23/14/4 18//18 20//18 16//18 14//18 7//28 11//20 27//7
f 10/11/19 6//27 13//17 15//17 19//17 17//17 22//3 26//11
f 3/1/9 4//10 2//8 1//6
f 31/3/23 32//24 4//10 3//9
f 30/15/22 32//24 31//23 29//21
f 16/8/25 15//25 13//25 14//25
f 20/5/5 19//5 15//25 16//25
f 18/16/2 17//2 19//5 20//5
f 28/12/2 24//1 23//4 27//7
f 7/13/28 8//29 12//26 11//20
f 12/17/26 28//2 27//7 11//20
f 22/10/3 21//1 25//5 26//11
f 9/9/25 5//29 6//27 10//19
f 25/18/5 9//25 10//19 26//11
v 0.00107751 -0.0150317 -0.0313798
v 0.00107751 -0.0150317 -0.581516
v 0.00107751 0.00322453 -0.0313798
v 0.00107751 0.00322453 -0.581516
v 0.0128177 -0.0135077 -0.0313798
v 0.0128177 -0.0135077 -0.581516
v 0.0166112 0.00243078 -0.0313798
v 0.0166112 0.00243078 -0.581516
v 0.0245579 -0.0119837 -0.0313798
v 0.0245579 -0.0119837 -0.581516
v 0.0280571 4.953e-05 -0.0313798
v 0.0280571 4.953e-05 -0.581516
v 0.0345976 -0.00868172 -0.0313798
v 0.0345976 -0.00868172 -0.581516
v 0.0402878 -0.00547497 -0.0313798
v 0.0402878 -0.00547497 -0.581516
vt 0.174603 0.839858
vt 0.185539 0.839858
vt 0.193598 0.839858
vt 0.211854 0.449997
vt 0.22012 0.449997
vt 0.227188 0.449997
vt 0.231194 0.839858
vt 0.254345 0.0586298
vt 0.645618 0.0586298
vt 0.653883 0.0597296
vt 0.662149 0.0608295
vt 0.982641 0.0132612
vt 0.990699 0.0115426
vt 0.99931 0.00755571
vn -0.557452 0.586664 0.587429
vn -0.557452 0.586664 -0.587429
vn -0.52611 -0.598818 0.603842
vn -0.52611 -0.598818 -0.603842
vn 0.090189 0.700272 0.708156
vn 0.090189 0.700272 -0.708156
vn 0.0910261 -0.701223 0.707107
vn 0.0910261 -0.701223 -0.707107
vn 0.156321 -0.687994 0.70868
vn 0.156321 -0.687994 -0.70868
vn 0.218205 0.670358 0.70923
vn 0.218205 0.670358 -0.70923
vn 0.360662 -0.81755 0.448926
vn 0.360662 -0.81755 -0.448926
vn 0.669734 0.0297994 0.742003
vn 0.669734 0.0297994 -0.742003
g group_Default
usemtl Default
s 1
f 42/29/39 44//41 48//45 46//43
f 38/28/37 40//35 44//41 42/29/39
f 34/27/33 36//31 40//35 38/28/37
f 48/25/45 47//44 45/24/42 46//43
f 44/21/41 43//40 47//44 48//45
f 40/20/35 39//34 43//40 44/21/41
f 36/19/31 35//30 39//34 40/20/35
f 33/26/32 35//30 36//31 34//33
f 37/22/36 33//32 34//33 38//37
f 41/23/38 37/22/36 38//37 42//39
f 45/24/42 41/23/38 42//39 46//43
f 47/32/44 43/31/40 41//38 45//42
f 43/31/40 39/30/34 37//36 41//38
f 39/30/34 35//30 33//32 37//36
v -0.0409109 -0.00547497 -0.0295781
v -0.0409109 -0.00547497 -0.579714
v -0.0352207 -0.00868172 -0.0295781
v -0.0352207 -0.00868172 -0.579714
v -0.0286802 4.953e-05 -0.0295781
v -0.0286802 4.953e-05 -0.579714
v -0.025181 -0.0119837 -0.0295781
v -0.025181 -0.0119837 -0.579714
v -0.0172343 0.00243078 -0.0295781
v -0.0172343 0.00243078 -0.579714
v -0.0134408 -0.0135077 -0.0295781
v -0.0134408 -0.0135077 -0.579714
v -0.00170062 -0.0150317 -0.0295781
v -0.00170062 -0.0150317 -0.579714
v -0.00170062 0.00322453 -0.0295781
v -0.00170062 0.00322453 -0.579714
vt 0.241185 0.449997
vt 0.249243 0.449997
vt 0.260179 0.449997
vt 0.26156 0.449997
vt 0.265566 0.839858
vt 0.272634 0.839858
vt 0.280899 0.839858
vt 0.644206 0.0731225
vt 0.685678 0.0608295
vt 0.693943 0.0597296
vt 0.702208 0.0586298
vt 0.703589 0.0655267
vt 0.7122 0.0695137
vt 0.720258 0.0712322
vn -0.669734 0.0297997 0.742003
vn -0.669734 0.0297997 -0.742003
vn -0.360662 -0.81755 0.448926
vn -0.360662 -0.81755 -0.448926
vn -0.218205 0.670358 0.70923
vn -0.218205 0.670358 -0.70923
vn -0.156321 -0.687994 0.70868
vn -0.156321 -0.687994 -0.70868
vn -0.0910261 -0.701223 0.707107
vn -0.0910261 -0.701223 -0.707107
vn -0.0901891 0.700272 0.708156
vn -0.0901891 0.700272 -0.708156
vn 0.52611 -0.598818 0.603842
vn 0.52611 -0.598818 -0.603842
vn 0.557452 0.586664 0.587429
vn 0.557452 0.586664 -0.587429
g group_Default
usemtl Default
s 1
f 55/41/52 53//50 49//46 51//48
f 59/42/54 57//56 53//50 55/41/52
f 61/43/58 63//60 57//56 59/42/54
f 49/36/46 50//47 52/37/49 51//48
f 53/33/50 54//51 50//47 49//46
f 57/34/56 58//57 54//51 53/33/50
f 63/35/60 64//61 58//57 57/34/56
f 62/40/59 64//61 63//60 61//58
f 60/39/55 62//59 61//58 59//54
f 56/38/53 60/39/55 59//54 55//52
f 52/37/49 56/38/53 55//52 51//48
f 50/44/47 54/45/51 56//53 52//49
f 54/45/51 58/46/57 60//55 56//53
f 58/46/57 64//61 62//59 60//55
v 0.0217469 -0.020687 -0.0205112
v 0.0217469 -0.020687 -0.59016
v 0.0217469 -0.0183375 -0.0205112
v 0.0217469 -0.0183375 -0.59016
v 0.0415508 -0.016173 -0.0205112
v 0.0415508 -0.016173 -0.59016
v 0.0442443 -0.0182281 -0.0205112
v 0.0442443 -0.0182281 -0.59016
v 0.0604885 -0.00977391 -0.0205112
v 0.0604885 -0.00977391 -0.59016
v 0.0631415 -0.0112127 -0.0205112
v 0.0631415 -0.0112127 -0.59016
v 0.0812898 0.0100002 -0.0205112
v 0.0812898 0.0100002 -0.59016
v 0.083341 0.00807854 -0.0205112
v 0.083341 0.00807854 -0.59016
vt 0.210846 0.434061
vt 0.224374 0.434061
vt 0.237311 0.434061
vt 0.251521 0.434061
vt 0.471736 0.0368357
vt 0.854809 0.0036773
vt 0.867746 0.00792713
vt 0.881956 0.0210598
vt 0.884759 0.000679348
vt 0.900128 0.00231244
vt 0.907513 0.5058
vt 0.913036 0.0069716
vt 0.921311 0.5058
vt 0.93422 0.5058
vn -0.618087 0.554211 0.557511
vn -0.618087 0.554211 -0.557511
vn -0.534335 -0.595921 0.59947
vn -0.534335 -0.595921 -0.59947
vn -0.360984 0.598176 0.715455
vn -0.360984 0.598176 -0.715455
vn -0.15204 0.68843 0.709189
vn -0.15204 0.68843 -0.709189
vn -0.00300459 0.82404 0.566523
vn -0.00300459 0.82404 -0.566523
vn 0.162076 -0.685508 0.709796
vn 0.162076 -0.685508 -0.709796
vn 0.37104 -0.593219 0.714437
vn 0.37104 -0.593219 -0.714437
vn 0.808596 0.00388489 0.588351
vn 0.808596 0.00388489 -0.588351
g group_Default
usemtl Default
s 1
f 76/58/75 74//67 78//71 80//77
f 72/56/73 70//69 74//67 76/58/75
f 66/55/65 68//63 70//69 72/56/73
f 78/50/71 77//70 79//76 80//77
f 74/49/67 73//66 77//70 78/50/71
f 70/48/69 69//68 73//66 74/49/67
f 68/47/63 67//62 69//68 70/48/69
f 65/51/64 67//62 68//63 66//65
f 77/54/70 73/53/66 75//74 79//76
f 73/53/66 69/52/68 71//72 75//74
f 69/52/68 67//62 65//64 71//72
f 71/60/72 65//64 66//65 72//73
f 75/59/74 71/60/72 72//73 76//75
f 79/57/76 75/59/74 76//75 80//77
v 0.0217469 -0.00938403 -0.0205112
v 0.0217469 -0.00938403 -0.59016
v 0.0217469 -0.00703453 -0.0205112
v 0.0217469 -0.00703453 -0.59016
v 0.0415508 -0.00486996 -0.0205112
v 0.0415508 -0.00486996 -0.59016
v 0.0442443 -0.00692505 -0.0205112
v 0.0442443 -0.00692505 -0.59016
v 0.0604885 0.00152909 -0.0205112
v 0.0604885 0.00152909 -0.59016
v 0.0631415 9.03264e-05 -0.0205112
v 0.0631415 9.03264e-05 -0.59016
v 0.0780749 0.0171793 -0.0205112
v 0.0780749 0.0171793 -0.59016
v 0.0800912 0.0152232 -0.0205112
v 0.0800912 0.0152232 -0.59016
vt 0.0804321 0.0368357
vt 0.12389 0.434061
vt 0.138171 0.434061
vt 0.151829 0.434061
vt 0.164511 0.434061
vt 0.183592 0.0442002
vt 0.19722 0.0442002
vt 0.209444 0.0442002
vt 0.384759 0.102129
vt 0.400984 0.104015
vt 0.414611 0.109398
vt 0.442519 0.105592
vt 0.456176 0.110502
vt 0.468859 0.122509
vn -0.618087 0.554211 0.557511
vn -0.618087 0.554211 -0.557511
vn -0.534335 -0.595921 0.59947
vn -0.534335 -0.595921 -0.59947
vn -0.351729 0.605105 0.714237
vn -0.351729 0.605105 -0.714237
vn -0.15204 0.68843 0.709189
vn -0.15204 0.68843 -0.709189
vn 0.0177667 0.825759 0.563743
vn 0.0177667 0.825759 -0.563743
vn 0.162076 -0.685508 0.709796
vn 0.162076 -0.685508 -0.709796
vn 0.361641 -0.600378 0.713276
vn 0.361641 -0.600378 -0.713276
vn 0.806016 -0.0166883 0.591658
vn 0.806016 -0.0166883 -0.591658
g group_Default
usemtl Default
s 1
f 92/71/91 90//83 94//87 96//93
f 88/70/89 86//85 90//83 92/71/91
f 82/69/81 84//79 86//85 88/70/89
f 94/65/87 93//86 95//92 96//93
f 90/64/83 89//82 93//86 94/65/87
f 86/63/85 85//84 89//82 90/64/83
f 84/62/79 83//78 85//84 86/63/85
f 81/61/80 83//78 84//79 82//81
f 87/66/88 81//80 82//81 88//89
f 91/67/90 87/66/88 88//89 92//91
f 95/68/92 91/67/90 92//91 96//93
f 93/74/86 89/73/82 91//90 95//92
f 89/73/82 85/72/84 87//88 91//90
f 85/72/84 83//78 81//80 87//88
v 0.0217469 -0.019036 -0.0242259
v 0.0217469 -0.019036 -0.586445
v 0.0217469 -0.00906653 -0.0242259
v 0.0217469 -0.00906653 -0.586445
v 0.0423357 -0.00690196 -0.0242259
v 0.0423357 -0.00690196 -0.586445
v 0.0456832 -0.0156881 -0.0242259
v 0.0456832 -0.0156881 -0.586445
v 0.0609177 -0.00968867 -0.0242259
v 0.0609177 -0.00968867 -0.586445
v 0.0612733 -0.00050291 -0.0242259
v 0.0612733 -0.00050291 -0.586445
v 0.0752977 0.0117516 -0.0242259
v 0.0752977 0.0117516 -0.586445
v 0.079547 0.00800004 -0.0242259
v 0.079547 0.00800004 -0.586445
vt 0.254345 0.0948068
vt 0.377513 0.839858
vt 0.3925 0.839858
vt 0.406286 0.839858
vt 0.416495 0.839858
vt 0.438416 0.449997
vt 0.449506 0.449997
vt 0.463067 0.449997
vt 0.486703 0.110161
vt 0.500489 0.114397
vt 0.510698 0.122509
vt 0.515194 0.102129
vt 0.532619 0.104345
vt 0.543709 0.108316
vn -0.616589 0.555163 0.558222
vn -0.616589 0.555163 -0.558222
vn -0.522064 -0.600168 0.60601
vn -0.522064 -0.600168 -0.60601
vn -0.349146 0.606974 0.713919
vn -0.349146 0.606974 -0.713919
vn -0.150605 0.688663 0.709268
vn -0.150605 0.688663 -0.709268
vn 0.00213345 0.832502 0.554017
vn 0.00213345 0.832502 -0.554017
vn 0.179144 -0.681478 0.709573
vn 0.179144 -0.681478 -0.709573
vn 0.37644 -0.590765 0.713645
vn 0.37644 -0.590765 -0.713645
vn 0.803558 0.0145583 0.595048
vn 0.803558 0.0145583 -0.595048
g group_Default
usemtl Default
s 1
f 106/88/107 108//99 110//103 112//109
f 104/87/105 102//101 108//99 106/88/107
f 98/86/97 100//95 102//101 104/87/105
f 110/79/103 109//102 111//108 112//109
f 108/78/99 107//98 109//102 110/79/103
f 102/77/101 101//100 107//98 108/78/99
f 100/76/95 99//94 101//100 102/77/101
f 97/75/96 99//94 100//95 98//97
f 103/80/104 97//96 98//97 104//105
f 105/81/106 103/80/104 104//105 106//107
f 111/82/108 105/81/106 106//107 112//109
f 109/85/102 107/84/98 105//106 111//108
f 107/84/98 101/83/100 103//104 105//106
f 101/83/100 99//94 97//96 103//104
v -0.083722 0.00818622 -0.0191226
v -0.083722 0.00818622 -0.588771
v -0.0817411 0.0101762 -0.0191226
v -0.0817411 0.0101762 -0.588771
v -0.0815008 0.0157455 -0.0191226
v -0.0815008 0.0157455 -0.588771
v -0.0801701 0.00800004 -0.0228374
v -0.0801701 0.00800004 -0.585057
v -0.0794845 0.0177016 -0.0191226
v -0.0794845 0.0177016 -0.588771
v -0.0759208 0.0117516 -0.0228374
v -0.0759208 0.0117516 -0.585057
v -0.0637646 -0.0112127 -0.0191226
v -0.0637646 -0.0112127 -0.588771
v -0.0637646 9.03264e-05 -0.0191226
v -0.0637646 9.03264e-05 -0.588771
v -0.0618964 -0.00050291 -0.0228374
v -0.0618964 -0.00050291 -0.585057
v -0.0615408 -0.00968867 -0.0228374
v -0.0615408 -0.00968867 -0.585057
v -0.0611116 -0.00977391 -0.0191226
v -0.0611116 -0.00977391 -0.588771
v -0.0611116 0.00152909 -0.0191226
v -0.0611116 0.00152909 -0.588771
v -0.0463063 -0.0156881 -0.0228374
v -0.0463063 -0.0156881 -0.585057
v -0.0448674 -0.0182281 -0.0191226
v -0.0448674 -0.0182281 -0.588771
v -0.0448674 -0.00692505 -0.0191226
v -0.0448674 -0.00692505 -0.588771
v -0.0429588 -0.00690196 -0.0228374
v -0.0429588 -0.00690196 -0.585057
v -0.0421739 -0.016173 -0.0191226
v -0.0421739 -0.016173 -0.588771
v -0.0421739 -0.00486996 -0.0191226
v -0.0421739 -0.00486996 -0.588771
v -0.02237 -0.020687 -0.0191226
v -0.02237 -0.020687 -0.588771
v -0.02237 -0.019036 -0.0228374
v -0.02237 -0.019036 -0.585057
v -0.02237 -0.0183375 -0.0191226
v -0.02237 -0.0183375 -0.588771
v -0.02237 -0.00938403 -0.0191226
v -0.02237 -0.00938403 -0.588771
v -0.02237 -0.00906653 -0.0228374
v -0.02237 -0.00906653 -0.585057
v -0.02237 -0.00703453 -0.0191226
v -0.02237 -0.00703453 -0.588771
vt 0.00213603 0.449997
vt 0.0152097 0.449997
vt 0.0286852 0.449997
vt 0.042777 0.449997
vt 0.0441795 0.839858
vt 0.0568001 0.839858
vt 0.0702468 0.839858
vt 0.132495 0.449997
vt 0.146642 0.449997
vt 0.15963 0.449997
vt 0.173212 0.449997
vt 0.268011 0.108385
vt 0.280971 0.103752
vt 0.29365 0.449997
vt 0.2964 0.102129
vt 0.299237 0.122509
vt 0.303859 0.449997
vt 0.312311 0.11034
vt 0.317644 0.449997
vt 0.325787 0.105525
vt 0.332632 0.449997
vt 0.334035 0.839858
vt 0.347596 0.839858
vt 0.353902 0.109258
vt 0.358686 0.839858
vt 0.367348 0.103979
vt 0.383357 0.102129
vt 0.561765 0.122509
vt 0.571975 0.114397
vt 0.58576 0.110161
vt 0.615712 0.108316
vt 0.626802 0.104345
vt 0.644206 0.0440821
vt 0.644206 0.0513285
vt 0.644206 0.0875604
vt 0.644226 0.102129
vt 0.917658 0.949858
vt 0.929596 0.0210598
vt 0.931345 0.949858
vt 0.943744 0.0078858
vt 0.944305 0.949858
vt 0.956732 0.0036602
vn -0.814835 -0.00671274 0.579654
vn -0.814835 -0.00671274 -0.579654
vn -0.805101 -0.0189532 0.592834
vn -0.805101 -0.0189532 -0.592834
vn -0.803559 0.0145575 0.595047
vn -0.803559 0.0145575 -0.595047
vn -0.37644 -0.590765 0.713645
vn -0.37644 -0.590765 -0.713645
vn -0.373473 -0.591302 0.714758
vn -0.373473 -0.591302 -0.714758
vn -0.360034 -0.601564 0.71309
vn -0.360034 -0.601564 -0.71309
vn -0.179145 -0.681478 0.709573
vn -0.179145 -0.681478 -0.709573
vn -0.162076 -0.685508 0.709796
vn -0.162076 -0.685508 -0.709796
vn -0.0200195 0.826367 0.562776
vn -0.0200195 0.826367 -0.562776
vn -0.00778697 0.818405 0.574589
vn -0.00778697 0.818405 -0.574589
vn -0.00213464 0.832502 0.554018
vn -0.00213464 0.832502 -0.554018
vn 0.150605 0.688663 0.709268
vn 0.150605 0.688663 -0.709268
vn 0.15204 0.68843 0.709189
vn 0.15204 0.68843 -0.709189
vn 0.15204 0.68843 0.709189
vn 0.15204 0.68843 -0.709189
vn 0.349146 0.606974 0.713919
vn 0.349146 0.606974 -0.713919
vn 0.350185 0.606226 0.714046
vn 0.350185 0.606226 -0.714046
vn 0.363366 0.596332 0.715789
vn 0.363366 0.596332 -0.715789
vn 0.522064 -0.600168 0.60601
vn 0.522064 -0.600168 -0.60601
vn 0.534335 -0.595921 0.59947
vn 0.534335 -0.595921 -0.59947
vn 0.534335 -0.595921 0.59947
vn 0.534335 -0.595921 -0.59947
vn 0.616589 0.555163 0.558222
vn 0.616589 0.555163 -0.558222
vn 0.618087 0.554211 0.557511
vn 0.618087 0.554211 -0.557511
vn 0.618087 0.554211 0.557511
vn 0.618087 0.554211 -0.557511
g group_Default
usemtl Default
s 1
f 125/100/118 133//142 115//128 113//110
f 139/101/124 145//134 133//142 125/100/118
f 149/103/148 153//154 145//134 139/101/124
f 115/96/128 116//129 114//111 113//110
f 133/97/142 134//143 116//129 115/96/128
f 145/98/134 146//135 134//143 133/97/142
f 153/99/154 154//155 146//135 145/98/134
f 150/121/149 154//155 153//154 149//148
f 116/126/129 134/128/143 126//119 114//111
f 134/128/143 146/130/135 140//125 126//119
f 146/130/135 154//155 150//149 140//125
f 127/112/120 135//140 121//126 117//112
f 141/114/124 147//136 135//140 127/112/120
f 155/115/146 159//152 147//136 141/114/124
f 121/89/126 122//127 118//113 117//112
f 135/90/140 136//141 122//127 121/89/126
f 147/91/136 148//137 136//141 135/90/140
f 159/92/152 160//153 148//137 147/91/136
f 156/122/147 160//153 159//152 155//146
f 142/95/125 156//147 155//146 141//124
f 128/94/121 142/95/125 141//124 127//120
f 118/93/113 128/94/121 127//120 117//112
f 122/104/127 136/106/141 128//121 118//113
f 136/106/141 148/108/137 142//125 128//121
f 148/108/137 160//153 156//147 142//125
f 131/119/116 129//138 123//130 119//114
f 137/120/122 143//132 129//138 131/119/116
f 151/124/144 157//150 143//132 137/120/122
f 123/102/130 124//131 120//115 119//114
f 129/105/138 130//139 124//131 123/102/130
f 143/107/132 144//133 130//139 129/105/138
f 157/109/150 158//151 144//133 143/107/132
f 152/123/145 158//151 157//150 151//144
f 138/113/123 152//145 151//144 137//122
f 132/111/117 138/113/123 137//122 131//116
f 120/110/115 132/111/117 131//116 119//114
f 124/116/131 130/117/139 132//117 120//115
f 130/117/139 144/118/133 138//123 132//117
f 144/118/133 158//151 152//145 138//123
f 140/129/125 150//149 149//148 139//124
f 126/127/119 140/129/125 139//124 125//118
f 114/125/111 126/127/119 125//118 113//110
v -0.00513724 0.0206375 -0.0470675
v -0.00513724 0.0206375 -0.0545324
v -0.00513724 0.0206375 -0.555068
v -0.00513724 0.0206375 -0.562532
v -0.00513724 0.477838 -0.0470675
v -0.00513724 0.477838 -0.0545324
v -0.00513724 0.477838 -0.555068
v -0.00513724 0.477838 -0.562532
v 0.00196227 0.0206375 -0.0447608
v 0.00196227 0.0206375 -0.0568392
v 0.00196227 0.0206375 -0.552761
v 0.00196227 0.0206375 -0.564839
v 0.00196227 0.477838 -0.0447608
v 0.00196227 0.477838 -0.0568392
v 0.00196227 0.477838 -0.552761
v 0.00196227 0.477838 -0.564839
v 0.00635001 0.0206375 -0.0508
v 0.00635001 0.0206375 -0.5588
v 0.00635001 0.477838 -0.0508
v 0.00635001 0.477838 -0.5588
vn -0.688193 -0.52573 -0.499998
vn -0.688193 0.52573 -0.499998
vn -0.688188 -0.525732 0.500003
vn -0.688188 0.525732 0.500003
vn 0.262865 -0.525733 -0.809016
vn 0.262865 0.525733 -0.809016
vn 0.262868 -0.525729 0.809018
vn 0.262868 0.525729 0.809018
vn 0.850651 -0.525731 3.97967e-06
vn 0.850651 0.525731 3.97967e-06
g group_Default
usemtl Default
s 1
f 169//162 161//158 162//156 170//160 177//164
f 170//160 174//161 179//165 177//164
f 166//157 174//161 170//160 162//156
f 165//159 166//157 162//156 161//158
f 173//163 165//159 161//158 169//162
f 177//164 179//165 173//163 169//162
f 174//161 166//157 165//159 173//163 179//165
f 171//162 163//158 164//156 172//160 178//164
f 172//160 176//161 180//165 178//164
f 168//157 176//161 172//160 164//156
f 167//159 168//157 164//156 163//158
f 175//163 167//159 163//158 171//162
f 178//164 180//165 175//163 171//162
f 176//161 168//157 167//159 175//163 180//165
