# Rhino

mtllib Box.mtl
g Surface_Model
o object_1
usemtl Green Hills
v 1 0 0
v 1 1.083333373069763 0
v 1 0 -1.208333373069763
v 1 1.083333373069763 -1.208333373069763
vt 0 0
vt 0 1
vt 1 0
vt 1 1
vn 1 0 0
vn 1 0 0
vn 1 0 0
vn 1 0 0
f 4/4/4 2/2/2 1/1/1 3/3/3
o object_2
usemtl Green Hills
v 1 0 -1.208333373069763
v 1 1.083333373069763 -1.208333373069763
v 0 0 -1.208333373069763
v 0 1.083333373069763 -1.208333373069763
vt 0 0
vt 0 1
vt 1 0
vt 1 1
vn 0 0 -1
vn 0 0 -1
vn 0 0 -1
vn 0 0 -1
f 8/8/8 6/6/6 5/5/5 7/7/7
o object_3
usemtl Green Hills
v 0 0 -1.208333373069763
v 0 1.083333373069763 -1.208333373069763
v 0 0 0
v 0 1.083333373069763 0
vt 0 0
vt 0 1
vt 1 0
vt 1 1
vn -1 0 0
vn -1 0 0
vn -1 0 0
vn -1 0 0
f 12/12/12 10/10/10 9/9/9 11/11/11
o object_4
usemtl Brown Earth
v 0 0 0
v 0 0 -1.208333373069763
v 1 0 0
v 1 0 -1.208333373069763
vt 0 0
vt 0 1
vt 1 0
vt 1 1
vn 0 -1 0
vn 0 -1 0
vn 0 -1 0
vn 0 -1 0
f 16/16/16 15/15/15 13/13/13 14/14/14
o object_5
usemtl Sky Blue
v 0 1.083333373069763 0
v 0 1.083333373069763 -1.208333373069763
v 1 1.083333373069763 0
v 1 1.083333373069763 -1.208333373069763
vt 0 0
vt 0 1
vt 1 0
vt 1 1
vn 0 1 0
vn 0 1 0
vn 0 1 0
vn 0 1 0
f 20/20/20 18/18/18 17/17/17 19/19/19
